<svg id="Calque_1" data-name="Calque 1" xmlns="http://www.w3.org/2000/svg" width="53.13mm" height="13.55mm" viewBox="0 0 150.59 38.41"><defs><style>.cls-1{fill:#392c82;}</style></defs><title>logo</title><path class="cls-1" d="M-5462.51-3070.92v-11.73h-11.73v35.19h11.73a11.73,11.73,0,0,0,11.73-11.73A11.73,11.73,0,0,0-5462.51-3070.92Z" transform="translate(5521.15 3082.65)"/><rect class="cls-1" y="23.46" width="11.73" height="11.73"/><rect class="cls-1" x="23.46" y="11.71" width="11.73" height="23.47"/><path class="cls-1" d="M-5428.43-3070.54a6.4,6.4,0,0,1-1,3.83,3.37,3.37,0,0,1-2.9,1.4,4.53,4.53,0,0,1-1.62-.34,4,4,0,0,1-1.4-.86l-.33.91h-1.83v-13.83h2.4v4.87a4.55,4.55,0,0,1,2.92-1.06,3.21,3.21,0,0,1,2.87,1.35A6.61,6.61,0,0,1-5428.43-3070.54Zm-2.47,0a4.3,4.3,0,0,0-.47-2.26,1.66,1.66,0,0,0-1.52-.75,2.83,2.83,0,0,0-1.18.27,4.14,4.14,0,0,0-1,.67v4.26a4.18,4.18,0,0,0,1,.61,2.63,2.63,0,0,0,1.11.26,1.83,1.83,0,0,0,1.59-.78A3.94,3.94,0,0,0-5430.9-3070.5Z" transform="translate(5521.15 3082.65)"/><path class="cls-1" d="M-5420-3065.6v-1.25a5,5,0,0,1-1.55,1.11,4.12,4.12,0,0,1-1.76.43,2.66,2.66,0,0,1-2.31-.91,4.41,4.41,0,0,1-.66-2.61v-6.51h2.4v5.37a7.81,7.81,0,0,0,.12,1.58,1.26,1.26,0,0,0,.39.76,1.31,1.31,0,0,0,.8.21,4.17,4.17,0,0,0,2.56-1.4v-6.51h2.4v9.75Z" transform="translate(5521.15 3082.65)"/><path class="cls-1" d="M-5408.51-3065.6v-.95a6,6,0,0,1-1.41.9,4.08,4.08,0,0,1-1.69.33,3.28,3.28,0,0,1-2.82-1.33,6.25,6.25,0,0,1-1-3.75,6.13,6.13,0,0,1,1.07-3.86,3.6,3.6,0,0,1,3-1.38,3.87,3.87,0,0,1,1.41.28,3.78,3.78,0,0,1,1.2.72v-4.81h2.4v13.83Zm-.19-7a3.84,3.84,0,0,0-.94-.61,2.66,2.66,0,0,0-1.15-.26,1.81,1.81,0,0,0-1.55.83,3.85,3.85,0,0,0-.59,2.25,4.29,4.29,0,0,0,.48,2.2,1.61,1.61,0,0,0,1.48.8,3,3,0,0,0,1.21-.27,3.88,3.88,0,0,0,1.05-.67Z" transform="translate(5521.15 3082.65)"/><path class="cls-1" d="M-5395-3065.79a3.48,3.48,0,0,1-1.2,2.9,6.2,6.2,0,0,1-3.85,1,8.28,8.28,0,0,1-3.82-.84l.71-2a7.29,7.29,0,0,0,3.11.71,3.65,3.65,0,0,0,2.07-.43,1.67,1.67,0,0,0,.58-1.44v-.8a4.1,4.1,0,0,1-2.87,1.09,3.39,3.39,0,0,1-2.81-1.28,5.8,5.8,0,0,1-1-3.69,6.85,6.85,0,0,1,.48-2.65,3.89,3.89,0,0,1,1.4-1.77,3.88,3.88,0,0,1,2.23-.63,3.81,3.81,0,0,1,1.54.34,4.19,4.19,0,0,1,1.29.86l.32-.92h1.83Zm-2.4-6.86a3.17,3.17,0,0,0-2.15-.87,1.8,1.8,0,0,0-1.48.8,3.41,3.41,0,0,0-.6,2.11,3.64,3.64,0,0,0,.53,2.19,1.66,1.66,0,0,0,1.39.71,3.51,3.51,0,0,0,2.3-1Z" transform="translate(5521.15 3082.65)"/><path class="cls-1" d="M-5390.32-3069.85a2.78,2.78,0,0,0,.63,1.87,2.44,2.44,0,0,0,1.78.57,4,4,0,0,0,1.24-.18,2,2,0,0,0,.93-.68l1.78,1.27a3.61,3.61,0,0,1-1.52,1.26,6.37,6.37,0,0,1-2.55.42,4.7,4.7,0,0,1-3.59-1.26,5.41,5.41,0,0,1-1.18-3.82q0-5.23,4.68-5.23a4.12,4.12,0,0,1,3.17,1.18,4.86,4.86,0,0,1,1.09,3.42v1.18Zm4.1-1.65q0-2.22-1.94-2.22a2.22,2.22,0,0,0-1,.22,1.63,1.63,0,0,0-.66.65,4.09,4.09,0,0,0-.39,1.35Z" transform="translate(5521.15 3082.65)"/><path class="cls-1" d="M-5376.29-3065.6a7.09,7.09,0,0,1-2,.29,3.29,3.29,0,0,1-2.43-.76,3.45,3.45,0,0,1-.74-2.47v-4.9h-1.24v-1.9h1.24v-2.71h2.4v2.71h2.27v1.9h-2.27v4.59a2,2,0,0,0,.28,1.24,1,1,0,0,0,.8.33,3.4,3.4,0,0,0,1.31-.27Z" transform="translate(5521.15 3082.65)"/><path class="cls-1" d="M-5435.55-3052.16a2.78,2.78,0,0,0,.63,1.87,2.44,2.44,0,0,0,1.78.57,4,4,0,0,0,1.24-.18,2,2,0,0,0,.93-.68l1.78,1.27a3.61,3.61,0,0,1-1.52,1.26,6.37,6.37,0,0,1-2.55.42,4.7,4.7,0,0,1-3.59-1.26,5.41,5.41,0,0,1-1.18-3.82q0-5.23,4.68-5.23a4.12,4.12,0,0,1,3.17,1.18,4.86,4.86,0,0,1,1.09,3.42v1.18Zm4.1-1.65q0-2.22-1.94-2.22a2.22,2.22,0,0,0-1,.22,1.63,1.63,0,0,0-.66.65,4.09,4.09,0,0,0-.39,1.35Z" transform="translate(5521.15 3082.65)"/><path class="cls-1" d="M-5421.35-3047.91l-1.93-3.1-2,3.1H-5428l3.36-4.81-3.31-4.93h2.8l1.94,3.08,2-3.08h2.65l-3.35,4.8,3.37,4.94Z" transform="translate(5521.15 3082.65)"/><path class="cls-1" d="M-5407.79-3052.85a7.5,7.5,0,0,1-.47,2.77,4,4,0,0,1-1.36,1.83,3.53,3.53,0,0,1-2.11.63,4,4,0,0,1-2.76-1v4.39h-2.4v-13.42h2.21v1a5.75,5.75,0,0,1,1.41-.91,4.12,4.12,0,0,1,1.7-.33,3.29,3.29,0,0,1,2.82,1.3A6.28,6.28,0,0,1-5407.79-3052.85Zm-2.47,0a4.21,4.21,0,0,0-.49-2.22,1.62,1.62,0,0,0-1.47-.79,3,3,0,0,0-1.2.27,4,4,0,0,0-1.06.67v4.26a3.85,3.85,0,0,0,.94.61,2.69,2.69,0,0,0,1.16.26,1.79,1.79,0,0,0,1.56-.84A3.91,3.91,0,0,0-5410.26-3052.82Z" transform="translate(5521.15 3082.65)"/><path class="cls-1" d="M-5399.69-3055.32a2.22,2.22,0,0,0-1-.19,2.65,2.65,0,0,0-1.27.32,5.61,5.61,0,0,0-1.23.93v6.34h-2.4v-9.75h2.4v1.39a6.26,6.26,0,0,1,1.32-1.11,2.94,2.94,0,0,1,1.58-.44,2.12,2.12,0,0,1,1.06.2Z" transform="translate(5521.15 3082.65)"/><path class="cls-1" d="M-5396.17-3052.16a2.78,2.78,0,0,0,.63,1.87,2.44,2.44,0,0,0,1.78.57,4,4,0,0,0,1.24-.18,2,2,0,0,0,.93-.68l1.78,1.27a3.61,3.61,0,0,1-1.52,1.26,6.37,6.37,0,0,1-2.55.42,4.7,4.7,0,0,1-3.59-1.26,5.41,5.41,0,0,1-1.18-3.82q0-5.23,4.68-5.23a4.12,4.12,0,0,1,3.17,1.18,4.86,4.86,0,0,1,1.09,3.42v1.18Zm4.1-1.65q0-2.22-1.94-2.22a2.22,2.22,0,0,0-1,.22,1.63,1.63,0,0,0-.66.65,4.09,4.09,0,0,0-.39,1.35Z" transform="translate(5521.15 3082.65)"/><path class="cls-1" d="M-5380.09-3050.69a2.78,2.78,0,0,1-.49,1.65A3,3,0,0,1-5382-3048a5.43,5.43,0,0,1-2,.36q-3.06,0-4.16-1.7l1.78-1.25a2.14,2.14,0,0,0,1,.79,3.67,3.67,0,0,0,1.22.2q1.71,0,1.71-1a.74.74,0,0,0-.48-.67,8,8,0,0,0-1.51-.49,5.63,5.63,0,0,1-2.73-1.21,2.72,2.72,0,0,1-.79-2,2.66,2.66,0,0,1,1-2.13,4.41,4.41,0,0,1,2.91-.84,5.94,5.94,0,0,1,2.31.42,3.28,3.28,0,0,1,1.54,1.25L-5382-3055a2.31,2.31,0,0,0-2.09-1,2,2,0,0,0-1.12.26.76.76,0,0,0-.38.66.7.7,0,0,0,.34.61,4.92,4.92,0,0,0,1.36.48,10.06,10.06,0,0,1,2.37.81,2.92,2.92,0,0,1,1.08,1A2.77,2.77,0,0,1-5380.09-3050.69Z" transform="translate(5521.15 3082.65)"/><path class="cls-1" d="M-5370.56-3050.69a2.78,2.78,0,0,1-.49,1.65,3,3,0,0,1-1.38,1.05,5.43,5.43,0,0,1-2,.36q-3.06,0-4.16-1.7l1.78-1.25a2.14,2.14,0,0,0,1,.79,3.67,3.67,0,0,0,1.22.2q1.71,0,1.71-1a.74.74,0,0,0-.48-.67,8,8,0,0,0-1.51-.49,5.63,5.63,0,0,1-2.73-1.21,2.72,2.72,0,0,1-.79-2,2.66,2.66,0,0,1,1-2.13,4.41,4.41,0,0,1,2.91-.84,5.94,5.94,0,0,1,2.31.42,3.28,3.28,0,0,1,1.54,1.25l-1.79,1.27a2.31,2.31,0,0,0-2.09-1,2,2,0,0,0-1.12.26.76.76,0,0,0-.38.66.7.7,0,0,0,.34.61,4.92,4.92,0,0,0,1.36.48,10.06,10.06,0,0,1,2.37.81,2.92,2.92,0,0,1,1.08,1A2.77,2.77,0,0,1-5370.56-3050.69Z" transform="translate(5521.15 3082.65)"/></svg>